<svg width="40" height="40" viewBox="0 0 40 40" fill="none" xmlns="http://www.w3.org/2000/svg">
<rect width="40" height="40" rx="8" fill="#D1FDCA"/>
<path d="M20 9V30" stroke="black" stroke-width="2" stroke-linecap="round" stroke-linejoin="round"/>
<path d="M25 13H17.5C16.5717 13 15.6815 13.3424 15.0251 13.9519C14.3687 14.5614 14 15.388 14 16.25C14 17.112 14.3687 17.9386 15.0251 18.5481C15.6815 19.1576 16.5717 19.5 17.5 19.5H22.5C23.4283 19.5 24.3185 19.8424 24.9749 20.4519C25.6313 21.0614 26 21.888 26 22.75C26 23.612 25.6313 24.4386 24.9749 25.0481C24.3185 25.6576 23.4283 26 22.5 26H14" stroke="black" stroke-width="2" stroke-linecap="round" stroke-linejoin="round"/>
</svg>
