<svg width="40" height="40" viewBox="0 0 40 40" fill="none" xmlns="http://www.w3.org/2000/svg">
<rect width="40" height="40" rx="8" fill="#D1FDCA"/>
<path d="M14.0909 11L11.2727 14.8V28.1C11.2727 28.6039 11.4707 29.0872 11.823 29.4435C12.1754 29.7998 12.6532 30 13.1515 30H26.303C26.8013 30 27.2792 29.7998 27.6315 29.4435C27.9839 29.0872 28.1818 28.6039 28.1818 28.1V14.8L25.3636 11H14.0909Z" stroke="black" stroke-width="2" stroke-linecap="round" stroke-linejoin="round"/>
<path d="M11.2727 15H28.1818" stroke="black" stroke-width="2" stroke-linecap="round" stroke-linejoin="round"/>
<path d="M23.4848 19C23.4848 20.0609 23.089 21.0783 22.3843 21.8284C21.6796 22.5786 20.7238 23 19.7273 23C18.7307 23 17.7749 22.5786 17.0703 21.8284C16.3656 21.0783 15.9697 20.0609 15.9697 19" stroke="black" stroke-width="2" stroke-linecap="round" stroke-linejoin="round"/>
</svg>
