<svg width="40" height="40" viewBox="0 0 40 40" fill="none" xmlns="http://www.w3.org/2000/svg">
<rect width="40" height="40" rx="8" fill="#D1FDCA"/>
<path d="M24 27V25.3333C24 24.4493 23.6576 23.6014 23.0481 22.9763C22.4386 22.3512 21.612 22 20.75 22H14.25C13.388 22 12.5614 22.3512 11.9519 22.9763C11.3424 23.6014 11 24.4493 11 25.3333V27" stroke="black" stroke-width="2" stroke-linecap="round" stroke-linejoin="round"/>
<path d="M17.5 19C19.433 19 21 17.433 21 15.5C21 13.567 19.433 12 17.5 12C15.567 12 14 13.567 14 15.5C14 17.433 15.567 19 17.5 19Z" stroke="black" stroke-width="2" stroke-linecap="round" stroke-linejoin="round"/>
<path d="M29 27V25.2964C28.9996 24.5415 28.8029 23.8082 28.4409 23.2115C28.0789 22.6149 27.5721 22.1887 27 22" stroke="black" stroke-width="2" stroke-linecap="round" stroke-linejoin="round"/>
<path d="M23 12C23.8582 12.199 24.6188 12.651 25.162 13.2847C25.7052 13.9184 26 14.6978 26 15.5C26 16.3022 25.7052 17.0816 25.162 17.7153C24.6188 18.349 23.8582 18.801 23 19" stroke="black" stroke-width="2" stroke-linecap="round" stroke-linejoin="round"/>
</svg>
