<svg width="107" height="35" viewBox="0 0 107 35" fill="none" xmlns="http://www.w3.org/2000/svg">
<g clip-path="url(#clip0_246_38)">
<path d="M17.8318 34.99C14.8748 34.823 13.7098 33.417 13.7098 30.305V20.977H11.8998V20.477C13.1757 20.2195 14.3555 19.614 15.3085 18.7275C16.2616 17.8409 16.9507 16.708 17.2998 15.454H18.1818V20.041H21.8998V20.977H18.1808V31.701C18.1808 33.401 18.9058 34.011 20.2368 34.011C20.8158 33.9842 21.3919 33.9123 21.9598 33.796V34.261C20.8396 34.7889 19.6105 35.0445 18.3728 35.007C18.1888 35.001 18.0078 35.001 17.8318 34.99ZM91.5318 30.913C91.5088 27.759 93.6968 27.078 97.1718 26.06C100.921 24.982 101.072 24.982 101.072 23.01C101.072 21.069 100.588 20.298 99.0718 20.298C97.6508 20.298 97.0718 21.192 97.0718 22.546C97.0737 23.0001 97.1878 23.4467 97.4038 23.846C96.7336 24.428 95.8744 24.7462 94.9868 24.741C94.6699 24.7691 94.3507 24.7282 94.0511 24.621C93.7516 24.5137 93.4789 24.3428 93.2518 24.12C93.0247 23.8972 92.8486 23.6277 92.7357 23.3303C92.6228 23.0328 92.5757 22.7144 92.5978 22.397C92.5978 19.963 95.4978 18.761 98.5528 18.761C102.513 18.761 105.294 19.81 105.294 24.061V31.673C105.294 33.552 105.535 33.899 106.985 33.899V34.363C105.886 34.6793 104.755 34.8698 103.613 34.931C101.2 34.949 100.965 33.74 100.88 33.707C100.822 33.683 100.788 33.707 100.729 33.771C99.5991 34.6406 98.1954 35.0769 96.7718 35.001C94.2378 35.001 91.5578 33.866 91.5368 30.913H91.5318ZM96.1748 30.745C96.1495 31.0486 96.1893 31.354 96.2917 31.6409C96.394 31.9277 96.5566 32.1894 96.7683 32.4083C96.98 32.6273 97.2361 32.7984 97.5194 32.9103C97.8027 33.0222 98.1066 33.0722 98.4108 33.057C100.497 33.057 101.072 31.145 101.072 28.866V26.431C97.5398 27.695 96.1798 28.401 96.1798 30.745H96.1748ZM23.0558 30.913C23.0338 27.759 25.2208 27.078 28.6958 26.06C32.4448 24.982 32.5958 24.982 32.5958 23.01C32.5958 21.069 32.1128 20.298 30.5958 20.298C29.1758 20.298 28.6018 21.192 28.6018 22.546C28.6033 23 28.7171 23.4466 28.9328 23.846C28.2629 24.4278 27.4041 24.7459 26.5168 24.741C26.1999 24.7691 25.8806 24.7282 25.5811 24.621C25.2815 24.5137 25.0088 24.3428 24.7817 24.12C24.5546 23.8972 24.3786 23.6277 24.2657 23.3303C24.1528 23.0328 24.1057 22.7144 24.1278 22.397C24.1278 19.963 27.0278 18.761 30.0828 18.761C34.0418 18.761 36.8228 19.81 36.8228 24.061V31.673C36.8228 33.552 37.0648 33.899 38.5148 33.899V34.363C37.4155 34.6791 36.284 34.8697 35.1418 34.931C32.7288 34.949 32.4928 33.74 32.4098 33.707C32.3508 33.683 32.3168 33.707 32.2578 33.771C31.1278 34.6408 29.7237 35.0771 28.2998 35.001C25.7628 35.001 23.0828 33.866 23.0608 30.913H23.0558ZM27.6988 30.745C27.6735 31.0486 27.7133 31.354 27.8157 31.6409C27.918 31.9277 28.0805 32.1894 28.2923 32.4083C28.504 32.6273 28.7601 32.7984 29.0434 32.9103C29.3267 33.0222 29.6306 33.0722 29.9348 33.057C32.0198 33.057 32.5948 31.145 32.5948 28.866V26.431C29.0638 27.695 27.6998 28.401 27.6998 30.745H27.6988ZM83.0718 34.928C77.8828 34.707 75.8938 30.68 75.8938 27.085C75.8938 22.617 78.1748 18.757 83.0718 18.757C86.9788 18.757 88.9948 21.249 89.6558 24.369C89.6958 24.556 89.9408 26.462 87.5438 27.069C85.2438 27.65 80.3588 28.58 80.3588 28.58C80.4338 29.7506 80.9646 30.8452 81.8372 31.629C82.7098 32.4129 83.8549 32.8236 85.0268 32.773C85.8353 32.7057 86.6223 32.4779 87.3419 32.1031C88.0614 31.7283 88.6991 31.2139 89.2178 30.59L90.1748 31.39C89.4998 32.5288 88.5262 33.4612 87.3593 34.0863C86.1924 34.7113 84.8767 35.0052 83.5548 34.936C83.3998 34.939 83.2418 34.935 83.0778 34.928H83.0718ZM82.7718 20.299C80.2118 20.526 79.8568 23.899 80.1028 26.041C80.1028 26.041 83.5188 25.353 83.7768 25.291C85.5118 24.871 85.4158 24.186 85.3548 23.624C85.1778 21.98 84.6158 20.288 82.9938 20.288C82.9231 20.2887 82.8498 20.293 82.7738 20.301L82.7718 20.299ZM1.39979 34.374V33.826C3.72579 33.641 4.2408 33.241 4.2408 30.62V18.162C4.2408 15.542 3.72579 15.142 1.39979 14.956V14.492H11.5798V14.956C9.25278 15.141 8.73881 15.542 8.73881 18.162V30.62C8.73881 33.241 9.25278 33.64 11.5798 33.826V34.374H1.39979ZM67.8388 34.36V33.901C68.7458 33.841 69.3498 33.624 69.3498 32.484V24.274C69.3498 22.517 68.6558 21.592 67.1748 21.592C66.709 21.6217 66.2541 21.7464 65.8383 21.9585C65.4224 22.1705 65.0544 22.4654 64.7568 22.825V32.484C64.7568 33.624 65.3568 33.841 66.2678 33.901V34.36H58.6498V33.901C59.6778 33.841 60.2838 33.624 60.2838 32.484V22.147C60.2838 20.947 59.6778 20.668 58.4698 20.606V20.106L64.5768 19.551V20.879C64.5768 21.002 64.6368 21.033 64.7278 21.033C64.8188 21.033 64.8778 21.002 65.1808 20.725C65.7349 20.1185 66.4065 19.6308 67.1547 19.2916C67.903 18.9525 68.7124 18.7689 69.5338 18.752C72.9188 18.752 73.8258 21.218 73.8258 24.793V32.479C73.8258 33.619 74.4258 33.836 75.4588 33.896V34.355L67.8388 34.36ZM49.1298 34.36V33.901C50.3388 33.841 50.9428 33.624 50.9428 32.484V22.147C50.9428 20.947 50.3428 20.668 49.1298 20.606V20.131L55.4158 19.576V32.484C55.4158 33.624 56.0158 33.841 57.2298 33.901V34.36H49.1298ZM39.6688 34.36V33.889C40.8778 33.827 41.4828 33.612 41.4828 32.471V16.494C41.4828 15.294 40.8768 15.014 39.6688 14.953V14.489L45.9558 13.935V32.472C45.9558 33.612 46.5558 33.827 47.7688 33.89V34.361L39.6688 34.36ZM50.5908 18.57L52.7848 15.723C52.9969 15.3846 53.2847 15.1 53.6255 14.8918C53.9663 14.6836 54.3509 14.5573 54.7488 14.523C54.9674 14.5134 55.1858 14.5473 55.3912 14.6227C55.5966 14.6982 55.785 14.8137 55.9454 14.9626C56.1058 15.1114 56.235 15.2907 56.3255 15.4899C56.4161 15.6891 56.4661 15.9043 56.4728 16.123C56.4852 16.5244 56.3576 16.9175 56.1118 17.235C55.866 17.5525 55.5174 17.7745 55.1258 17.863C53.4508 18.326 51.7398 18.753 50.8448 18.963H50.8388L50.5908 18.57ZM-0.000202084 6.62204C0.0236327 5.34189 0.425012 4.09728 1.15358 3.0444C1.88214 1.99151 2.90542 1.17725 4.09504 0.703786C5.28466 0.230319 6.58763 0.118737 7.84044 0.383039C9.09324 0.647341 10.2401 1.27575 11.1371 2.18943C12.034 3.1031 12.6412 4.26134 12.8823 5.5188C13.1235 6.77626 12.9879 8.07694 12.4926 9.25763C11.9972 10.4383 11.1643 11.4464 10.0981 12.1554C9.03199 12.8645 7.78018 13.2428 6.4998 13.243C5.63823 13.2352 4.78666 13.0577 3.99369 12.7207C3.20073 12.3837 2.48191 11.8938 1.87831 11.279C1.27471 10.6641 0.79813 9.9364 0.475811 9.13736C0.153492 8.33832 -0.00824963 7.48361 -0.000202084 6.62204Z" fill="#323232"/>
</g>
<defs>
<clipPath id="clip0_246_38">
<rect width="107" height="35.005" fill="white"/>
</clipPath>
</defs>
</svg>
