<svg width="158" height="33" viewBox="0 0 158 33" fill="none" xmlns="http://www.w3.org/2000/svg">
<g clip-path="url(#clip0_246_33)">
<path d="M16.685 5.77905H0V8.96906H6.74901V32.2961H9.94V8.97003H16.685V5.77905ZM59.463 27.256H62.654C62.6801 27.9149 62.9602 28.538 63.4355 28.9949C63.9109 29.4518 64.5447 29.707 65.204 29.707C65.8633 29.707 66.4971 29.4518 66.9725 28.9949C67.4478 28.538 67.7279 27.9149 67.754 27.256C67.7702 26.8918 67.7106 26.5281 67.579 26.188C67.4943 25.9905 67.36 25.8183 67.189 25.688C66.4491 25.2305 65.6327 24.9104 64.779 24.743C63.5468 24.4774 62.3798 23.9692 61.346 23.248C60.723 22.7474 60.2271 22.1066 59.8987 21.378C59.5702 20.6493 59.4185 19.8534 59.456 19.0551C59.4759 17.5444 60.09 16.1024 61.1653 15.0411C62.2407 13.9799 63.6907 13.3848 65.2015 13.3848C66.7123 13.3848 68.1623 13.9799 69.2376 15.0411C70.313 16.1024 70.9271 17.5444 70.947 19.0551H67.754C67.7676 18.7117 67.7117 18.3691 67.5897 18.0479C67.4677 17.7266 67.282 17.4334 67.0439 17.1856C66.8058 16.9379 66.5201 16.7407 66.2039 16.6061C65.8877 16.4714 65.5476 16.402 65.204 16.402C64.8604 16.402 64.5203 16.4714 64.2041 16.6061C63.8879 16.7407 63.6022 16.9379 63.3641 17.1856C63.126 17.4334 62.9403 17.7266 62.8183 18.0479C62.6963 18.3691 62.6404 18.7117 62.654 19.0551C62.691 20.1321 62.914 20.374 63.319 20.735C64.0251 21.1839 64.8078 21.4989 65.628 21.6641C66.5609 21.8891 67.4663 22.2157 68.328 22.6381C69.2927 23.1213 70.0618 23.9218 70.506 24.905C70.8518 25.6894 71.0183 26.5411 70.9936 27.3979C70.9688 28.2548 70.7533 29.0954 70.3627 29.8585C69.9722 30.6216 69.4164 31.2881 68.7359 31.8094C68.0554 32.3307 67.2672 32.6937 66.4287 32.8721C65.5903 33.0504 64.7226 33.0395 63.8888 32.8403C63.055 32.6411 62.2762 32.2586 61.6089 31.7205C60.9416 31.1823 60.4026 30.5022 60.0312 29.7296C59.6598 28.957 59.4654 28.1113 59.462 27.254L59.463 27.256ZM121.377 32.2971V19.063C121.377 18.3858 121.108 17.7363 120.629 17.2574C120.15 16.7786 119.501 16.5096 118.824 16.5096C118.146 16.5096 117.497 16.7786 117.018 17.2574C116.539 17.7363 116.27 18.3858 116.27 19.063V32.2971H113.077V19.063C113.097 17.5524 113.711 16.1104 114.786 15.0491C115.862 13.9879 117.312 13.3929 118.823 13.3929C120.333 13.3929 121.783 13.9879 122.859 15.0491C123.934 16.1104 124.548 17.5524 124.568 19.063V32.2971H121.377ZM50.677 29.8071C50.0005 29.8065 49.3519 29.5376 48.8734 29.0594C48.395 28.5811 48.1258 27.9325 48.125 27.256V24.8091H50.677C52.2004 24.8091 53.6615 24.2041 54.739 23.1271C55.8165 22.0502 56.4222 20.5895 56.423 19.066C56.4254 17.9497 56.0992 16.8573 55.485 15.925C55.469 15.902 55.456 15.8761 55.441 15.8521C55.426 15.8281 55.426 15.8331 55.419 15.8231C54.8919 15.0517 54.1844 14.4208 53.358 13.9851C52.5316 13.5494 51.6112 13.3222 50.677 13.3231C50.651 13.3231 50.626 13.3231 50.6 13.3231C49.09 13.3428 47.6485 13.9566 46.5878 15.0315C45.5271 16.1064 44.9326 17.5559 44.933 19.066V27.256C44.933 28.7797 45.5383 30.241 46.6157 31.3184C47.6931 32.3958 49.1543 33.001 50.678 33.001C52.2017 33.001 53.6629 32.3958 54.7403 31.3184C55.8177 30.241 56.423 28.7797 56.423 27.256H53.231C53.23 27.9323 52.9608 28.5805 52.4827 29.0587C52.0045 29.5369 51.3562 29.806 50.68 29.8071H50.677ZM50.677 21.616H48.125V19.0651C48.1253 18.3881 48.3942 17.739 48.8727 17.2601C49.3511 16.7813 50.0001 16.5118 50.677 16.511C50.8449 16.5113 51.0123 16.5277 51.177 16.5601H51.195C51.3472 16.5916 51.4962 16.6371 51.64 16.696L51.674 16.709C51.712 16.725 51.749 16.7441 51.786 16.7621C51.823 16.7801 51.862 16.796 51.898 16.816C51.9083 16.8218 51.9184 16.8282 51.928 16.8351C52.2761 17.0304 52.5737 17.3043 52.797 17.6351C52.806 17.6471 52.813 17.6611 52.821 17.6741C52.858 17.7301 52.893 17.786 52.921 17.845C52.94 17.879 52.954 17.9141 52.971 17.9451C52.988 17.9761 53.011 18.023 53.028 18.064C53.045 18.105 53.063 18.1581 53.079 18.2051C53.09 18.2361 53.104 18.2671 53.113 18.2991C53.122 18.3311 53.135 18.384 53.146 18.426C53.157 18.468 53.168 18.5041 53.176 18.5441C53.184 18.5841 53.19 18.6281 53.195 18.6691C53.2 18.7101 53.211 18.7551 53.215 18.7971C53.219 18.8391 53.215 18.8801 53.221 18.9211C53.227 18.9621 53.228 19.0121 53.228 19.0591C53.228 19.7357 52.9599 20.3847 52.4823 20.864C52.0047 21.3432 51.3566 21.6136 50.68 21.616H50.677ZM129.207 5.78705H132.399V9.24908H129.207V5.78705ZM129.207 14.022H132.399V32.298H129.207V14.022ZM105.24 5.78705H108.433V9.24908H105.24V5.78705ZM105.24 14.022H108.432V32.298H105.24V14.022ZM100.599 32.298V19.063C100.6 18.0848 100.351 17.1224 99.8759 16.2675C99.4004 15.4125 98.7142 14.6933 97.8825 14.1782C97.0508 13.6632 96.1012 13.3694 95.1239 13.3247C94.1467 13.28 93.1742 13.486 92.299 13.923V5.78503H89.107V32.2971H92.299V19.063C92.299 18.3857 92.5681 17.736 93.0471 17.2571C93.526 16.7781 94.1756 16.509 94.853 16.509C95.5304 16.509 96.18 16.7781 96.659 17.2571C97.1379 17.736 97.407 18.3857 97.407 19.063V32.2971L100.599 32.298ZM37.899 5.78607V13.923C37.0238 13.486 36.0513 13.28 35.0741 13.3247C34.0968 13.3694 33.1472 13.6632 32.3155 14.1782C31.4838 14.6933 30.7976 15.4125 30.3221 16.2675C29.8467 17.1224 29.5977 18.0848 29.599 19.063V27.256C29.599 28.7798 30.2043 30.2412 31.2818 31.3187C32.3593 32.3962 33.8207 33.0015 35.3445 33.0015C36.8683 33.0015 38.3297 32.3962 39.4072 31.3187C40.4847 30.2412 41.09 28.7798 41.09 27.256V5.78503L37.899 5.78607ZM37.899 27.2571C37.899 27.9342 37.63 28.5835 37.1512 29.0623C36.6725 29.5411 36.0231 29.8101 35.346 29.8101C34.6689 29.8101 34.0196 29.5411 33.5408 29.0623C33.062 28.5835 32.793 27.9342 32.793 27.2571V19.063C32.793 18.386 33.062 17.7366 33.5408 17.2578C34.0196 16.779 34.6689 16.5101 35.346 16.5101C36.0231 16.5101 36.6725 16.779 37.1512 17.2578C37.63 17.7366 37.899 18.386 37.899 19.063V27.2571ZM74.279 27.2571V19.066C74.279 17.5424 74.8843 16.0811 75.9617 15.0037C77.0391 13.9263 78.5004 13.321 80.024 13.321C81.5477 13.321 83.0089 13.9263 84.0863 15.0037C85.1637 16.0811 85.769 17.5424 85.769 19.066H82.585C82.585 18.3887 82.3159 17.7391 81.8369 17.2601C81.358 16.7812 80.7084 16.5121 80.031 16.5121C79.3536 16.5121 78.704 16.7812 78.2251 17.2601C77.7461 17.7391 77.477 18.3887 77.477 19.066V27.256C77.477 27.9334 77.7461 28.583 78.2251 29.062C78.704 29.541 79.3536 29.8101 80.031 29.8101C80.7084 29.8101 81.358 29.541 81.8369 29.062C82.3159 28.583 82.585 27.9334 82.585 27.256H85.776C85.776 28.7797 85.1707 30.241 84.0933 31.3184C83.0159 32.3958 81.5547 33.001 80.031 33.001C78.5073 33.001 77.0461 32.3958 75.9687 31.3184C74.8913 30.241 74.286 28.7797 74.286 27.256L74.279 27.2571ZM14.272 27.2571V19.066C14.272 17.5424 14.8773 16.0811 15.9547 15.0037C17.0321 13.9263 18.4933 13.321 20.017 13.321C21.5407 13.321 23.0019 13.9263 24.0793 15.0037C25.1567 16.0811 25.762 17.5424 25.762 19.066V27.256C25.762 28.7797 25.1567 30.241 24.0793 31.3184C23.0019 32.3958 21.5407 33.001 20.017 33.001C18.4933 33.001 17.0321 32.3958 15.9547 31.3184C14.8773 30.241 14.272 28.7797 14.272 27.256V27.2571ZM17.464 27.2571C17.4772 27.9256 17.7521 28.5622 18.2295 29.0303C18.7069 29.4984 19.3489 29.7605 20.0175 29.7605C20.6861 29.7605 21.3281 29.4984 21.8055 29.0303C22.2829 28.5622 22.5578 27.9256 22.571 27.2571V19.066C22.5777 18.7265 22.5166 18.3889 22.3913 18.0732C22.266 17.7576 22.079 17.4701 21.8412 17.2275C21.6035 16.985 21.3197 16.7923 21.0065 16.6608C20.6934 16.5292 20.3572 16.4615 20.0175 16.4615C19.6779 16.4615 19.3416 16.5292 19.0285 16.6608C18.7153 16.7923 18.4316 16.985 18.1938 17.2275C17.956 17.4701 17.769 17.7576 17.6437 18.0732C17.5184 18.3889 17.4573 18.7265 17.464 19.066V27.2571Z" fill="#323232"/>
<path d="M156.883 3.7821C156.695 3.18589 156.306 2.67313 155.783 2.33105C154.676 1.78913 153.534 1.32147 152.365 0.931089C151.852 0.854397 151.328 0.903624 150.838 1.07452C150.348 1.24542 149.907 1.53288 149.553 1.91211C148.711 2.62177 148.012 3.48506 147.492 4.45605C144.868 0.202053 142.259 -0.273942 141.192 0.0990582C139.868 0.723221 138.584 1.43068 137.349 2.2171C136.978 2.5941 136.928 4.24805 138.4 7.33105C139.709 10.0731 143.827 13.9421 146.194 15.4931C145.256 15.9641 144.227 16.2239 143.178 16.2541C143.418 16.9591 145.163 17.3031 145.894 17.3401C148.023 17.4491 151.985 15.6401 154.574 12.1541C155.669 10.7545 156.472 9.14852 156.933 7.43207C157.304 6.23934 157.287 4.95944 156.884 3.7771M139.318 2.27106C139.761 2.03167 140.273 1.95292 140.767 2.04809C143.339 2.71209 145.78 5.3881 146.983 6.8891C147.631 7.7621 147.735 8.14411 148.122 8.08911C148.997 7.96011 148.622 7.06909 148.622 7.06909C148.594 6.98109 148.565 6.89707 148.536 6.81207L148.552 6.78808C151.371 2.43808 153.409 2.04809 153.409 2.04809C154.972 3.29909 153.641 9.22105 151.003 12.1071C150.559 12.595 150.084 13.0549 149.583 13.4841C149.032 13.9075 148.455 14.295 147.854 14.6441C142.318 10.7761 139.046 2.71706 139.318 2.27106Z" fill="#B3B3B3"/>
</g>
<defs>
<clipPath id="clip0_246_33">
<rect width="157.2" height="33" fill="white"/>
</clipPath>
</defs>
</svg>
